<svg xmlns="http://www.w3.org/2000/svg" version="1.1" xmlns:xlink="http://www.w3.org/1999/xlink" width="512" height="512" x="0" y="0" viewBox="0 0 48 48" style="enable-background:new 0 0 512 512" xml:space="preserve" class=""><g><path d="M9 19.25A2.753 2.753 0 0 0 6.25 22v5c0 .962 1.5.976 1.5 0v-1.25h2.5V27c0 .974 1.5.97 1.5 0v-5A2.753 2.753 0 0 0 9 19.25zm-1.25 5V22a1.251 1.251 0 0 1 2.5 0v2.25zM18.75 22A2.753 2.753 0 0 0 16 19.25h-2a.75.75 0 0 0-.75.75v7c0 .973 1.5.97 1.5 0v-2.25H16A2.753 2.753 0 0 0 18.75 22zM16 23.25h-1.25v-2.5H16a1.251 1.251 0 0 1 0 2.5zM21 19.274c-.375-.003-.75.236-.75.726v7c0 .963 1.5.972 1.5 0v-7c0-.478-.375-.723-.75-.726z" fill="#000" opacity="1" data-original="#000000" class=""></path><path d="M44 5.25H4A2.753 2.753 0 0 0 1.25 8v32A2.753 2.753 0 0 0 4 42.75h40A2.753 2.753 0 0 0 46.75 40V8A2.753 2.753 0 0 0 44 5.25zM4 6.75h40c.69 0 1.25.56 1.25 1.25v5.25H2.75V8c0-.69.56-1.25 1.25-1.25zm40 34.5H4c-.69 0-1.25-.56-1.25-1.25V14.75h42.5V40c0 .69-.56 1.25-1.25 1.25z" fill="#000" opacity="1" data-original="#000000" class=""></path><path d="M40.58 27.129a1.752 1.752 0 0 0 .64-2.39l-1.285-2.227c-.472-.81-1.58-1.11-2.391-.641-.657.38-1.508-.116-1.508-.871 0-.965-.785-1.75-1.75-1.75h-2.572c-.965 0-1.75.785-1.75 1.75 0 .76-.85 1.25-1.508.871a1.77 1.77 0 0 0-2.39.64l-1.287 2.227a1.752 1.752 0 0 0 .64 2.39c.662.383.659 1.363 0 1.743a1.752 1.752 0 0 0-.64 2.39l1.286 2.227c.475.822 1.57 1.117 2.391.641.66-.382 1.508.115 1.508.871 0 .965.785 1.75 1.75 1.75h2.572c.965 0 1.75-.785 1.75-1.75 0-.762.847-1.252 1.508-.871.825.475 1.918.186 2.39-.64l1.287-2.227a1.752 1.752 0 0 0-.64-2.39c-.663-.383-.66-1.362 0-1.743zm-.75 3.04a.25.25 0 0 1 .092.343l-1.286 2.226a.252.252 0 0 1-.342.092c-1.643-.949-3.758.285-3.758 2.17a.25.25 0 0 1-.25.25h-2.572a.25.25 0 0 1-.25-.25c0-1.89-2.116-3.12-3.758-2.17a.252.252 0 0 1-.342-.092l-1.286-2.226a.25.25 0 0 1 .092-.342c1.635-.952 1.641-3.393 0-4.34a.25.25 0 0 1-.092-.342l1.286-2.226a.25.25 0 0 1 .342-.092c1.644.952 3.758-.28 3.758-2.17a.25.25 0 0 1 .25-.25h2.572a.25.25 0 0 1 .25.25c0 1.893 2.115 3.12 3.758 2.17a.251.251 0 0 1 .342.092l1.286 2.226a.25.25 0 0 1-.092.342c-1.628.948-1.627 3.4 0 4.34z" fill="#000" opacity="1" data-original="#000000" class=""></path><path d="M33 24.25c-2.067 0-3.75 1.682-3.75 3.75s1.683 3.75 3.75 3.75 3.75-1.682 3.75-3.75-1.683-3.75-3.75-3.75zm0 6c-1.24 0-2.25-1.01-2.25-2.25s1.01-2.25 2.25-2.25 2.25 1.01 2.25 2.25-1.01 2.25-2.25 2.25zM32 10.75h10c.96 0 .978-1.5 0-1.5H32c-.956 0-.975 1.5 0 1.5z" fill="#000" opacity="1" data-original="#000000" class=""></path><circle cx="6" cy="10" r=".75" fill="#000" opacity="1" data-original="#000000" class=""></circle><circle cx="9" cy="10" r=".75" fill="#000" opacity="1" data-original="#000000" class=""></circle><circle cx="12" cy="10" r=".75" fill="#000" opacity="1" data-original="#000000" class=""></circle><path d="M10.53 35.47 8.06 33l2.47-2.47c.66-.66-.383-1.738-1.06-1.06l-3 3a.75.75 0 0 0 0 1.06l3 3c.663.664 1.768-.353 1.06-1.06zM18.53 29.47c-.664-.665-1.746.375-1.06 1.06L19.94 33l-2.47 2.47c-.668.668.384 1.737 1.06 1.06l3-3a.75.75 0 0 0 0-1.06l-3-3zM15.22 29.335c-.353-.126-.78-.03-.931.428l-2 6c-.305.912 1.115 1.4 1.422.474l2-5.999c.143-.429-.137-.777-.49-.903z" fill="#000" opacity="1" data-original="#000000" class=""></path></g></svg>