<svg width="94" height="45" viewBox="0 0 94 45" fill="none" xmlns="http://www.w3.org/2000/svg">
<path d="M10.4317 3.67645V16.1787C10.4317 16.1787 14.8405 16.1787 17.2001 15.9998C19.0557 15.6752 19.3972 15.4962 19.7387 13.6421L20.4218 10.9264H22.4398L22.0983 16.8613L22.2774 22.9418H20.2427L19.7387 20.5674C19.2348 18.8777 18.5517 18.5344 17.2001 18.3721C15.509 18.1931 10.4317 18.1931 10.4317 18.1931V28.679C10.4317 30.6954 11.4563 31.5569 13.8159 31.5569H20.9258C23.1229 31.5569 25.318 31.3779 26.6862 28.1754L28.5251 24.1113H30.2328C30.0537 24.9562 29.2082 32.4018 29.0458 34.0769C29.0458 34.0769 22.6189 33.9146 19.9178 33.9146H7.73061L0.458252 34.0769V32.2394L2.81781 31.7192C4.52552 31.3779 5.02951 30.8743 5.02951 29.5238C5.02951 29.5238 5.20861 24.9562 5.20861 17.3462C5.20861 9.75488 5.02951 5.18513 5.02951 5.18513C5.02951 3.67229 4.52552 3.33101 2.81781 2.98974L0.458252 2.49031V0.636196L7.56817 0.781862H21.1049C23.806 0.781862 28.3606 0.294922 28.3606 0.294922C28.3606 0.294922 28.1982 3.15622 28.0191 9.91927H26.1635L25.4804 7.54492C24.814 4.50467 23.8039 2.99182 21.9338 2.99182H11.2939C10.4317 2.9939 10.4317 3.15622 10.4317 3.67645ZM37.8301 5.01033H39.8648V12.1147L46.8122 11.7734L46.4707 14.9926L39.7023 14.4724V26.9913C39.7023 30.5352 40.8894 31.9003 42.9241 31.9003C44.763 31.9003 46.1292 30.8764 46.6331 30.0316L47.6411 31.2177C46.6331 33.5754 43.7696 34.7615 41.0518 34.7615C37.6843 34.7615 34.9499 32.7451 34.9499 28.86V14.6493H30.9138V12.9595C34.3001 12.6183 36.8221 10.5852 37.8301 5.01033ZM52.3915 26.8103L53.741 30.0295C54.2449 31.3779 55.432 32.7451 58.1331 32.7451C61.0133 32.7451 62.2004 31.2177 62.2004 29.3636C62.2004 23.6077 50.8608 25.2995 50.8608 17.5272C50.8608 13.1385 54.4074 11.0888 58.9786 11.0888C61.0133 11.0888 64.056 11.43 65.5846 12.1126C65.243 13.8023 65.0639 15.9977 65.0639 17.6895L63.3875 17.8518L62.2004 14.4703C61.8588 13.6421 60.4927 12.9574 58.8162 12.9574C56.7815 12.9574 54.7489 13.8023 54.7489 15.9977C54.7489 21.2333 66.4301 20.0618 66.4301 27.8341C66.4301 32.2394 62.5419 34.5971 57.7916 34.5971C54.2449 34.5971 50.6817 33.2321 50.6817 33.2321C51.0232 31.2156 50.8608 29.0223 50.6817 26.8103H52.3915ZM65.5867 43.0354C66.0906 41.1812 66.4322 38.8256 66.7737 36.6136L68.6293 36.4513L69.3124 39.9951C69.4748 40.84 69.9788 41.5225 71.3304 41.5225C73.5275 41.5225 76.4077 40.1741 79.1234 35.442C77.9197 32.5641 74.373 23.281 71.1513 16.1767C70.3058 14.308 70.1433 14.1436 68.9708 13.8023L68.1087 13.4777V11.7713L73.2006 11.9503L79.4483 11.609V13.3008L77.9197 13.6421C76.7326 13.8044 76.2432 14.4703 76.2432 15.1549C76.2432 15.3339 76.2432 15.4962 76.4056 15.8375C76.7305 16.8613 79.4483 24.4546 81.483 29.5259C83.1594 25.9821 86.3812 18.0329 86.8852 16.6823C87.0643 15.9998 87.2267 15.8375 87.2267 15.3339C87.2267 14.4724 86.7227 13.9688 85.5502 13.6442L84.3465 13.3008V11.6111L89.0969 11.7734L93.489 11.6111V13.3008L92.6435 13.9667C90.9524 14.6493 90.7733 14.8116 90.1048 16.1767L82.67 33.5712C78.2612 43.5535 73.69 44.3984 70.4828 44.3984C68.4502 44.4005 66.9216 43.8802 65.5867 43.0354Z" fill="#F45800"/>
</svg>
