<svg xmlns="http://www.w3.org/2000/svg" version="1.1" xmlns:xlink="http://www.w3.org/1999/xlink" xmlns:svgjs="http://svgjs.com/svgjs" width="1000" height="1000"><rect width="1000" height="1000" rx="200" ry="200" fill="#ffffff"></rect><g transform="matrix(1.7578125,0,0,1.7578125,50.58788979053497,50.00003179907799)"><svg xmlns="http://www.w3.org/2000/svg" version="1.1" xmlns:xlink="http://www.w3.org/1999/xlink" xmlns:svgjs="http://svgjs.com/svgjs" width="512" height="512"><svg xmlns="http://www.w3.org/2000/svg" version="1.1" xmlns:xlink="http://www.w3.org/1999/xlink" width="512" height="512" x="0" y="0" viewBox="0 0 66 66" style="enable-background:new 0 0 512 512" xml:space="preserve" class=""><g><path d="M24.3 26.9c-3.1 0-5.7 2.6-5.7 5.7 0 .6.4 1 1 1s1-.4 1-1c0-2 1.7-3.7 3.7-3.7.6 0 1-.4 1-1s-.4-1-1-1z" fill="#2979ff" opacity="1" data-original="#000000" class=""></path><path d="M57.3 49.4c-.9 0-1.7.2-2.4.5l-6.1-6.3c.7-.9 1.2-2.1 1.2-3.4 0-3.1-2.5-5.5-5.5-5.5-2.2 0-4.1 1.3-5 3.1l-6.2-1.4c.5-1.1.7-2.4.7-3.7 0-1.8-.5-3.4-1.3-4.9l19.9-14c1.3 1.1 2.9 1.7 4.6 1.7 4 0 7.2-3.2 7.2-7.2s-3.2-7.2-7.2-7.2S50 4.3 50 8.3c0 1.5.5 2.9 1.2 4L31.5 26.2c-1.8-2-4.4-3.3-7.2-3.3-1.8 0-3.4.5-4.8 1.3l-8.6-12c1-1 1.7-2.4 1.7-3.9 0-3.1-2.5-5.5-5.5-5.5S1.5 5.2 1.5 8.2 4 13.8 7 13.8c.8 0 1.6-.2 2.2-.5l8.6 12.1c-2 1.8-3.3 4.4-3.3 7.3 0 2.5.9 4.7 2.4 6.4l-5.2 7.7c-.9-.4-2-.7-3.1-.7-4 0-7.2 3.2-7.2 7.2s3.2 7.2 7.2 7.2 7.2-3.2 7.2-7.2c0-2.2-1-4.1-2.5-5.4l5-7.4c1.6 1.2 3.6 2 5.8 2 3.3 0 6.2-1.7 8-4.2l6.6 1.5v.5c0 3.1 2.5 5.5 5.5 5.5 1 0 2-.3 2.9-.8l6 6.2c-.9 1-1.5 2.3-1.5 3.8 0 .4 0 .8.1 1.2L45 57.3c-.8-2-2.8-3.4-5.1-3.4-3.1 0-5.5 2.5-5.5 5.5s2.5 5.5 5.5 5.5 5.5-2.5 5.5-5.5v-.2l7.3-1.3c1 1.5 2.7 2.5 4.6 2.5 3.1 0 5.5-2.5 5.5-5.5s-2.4-5.5-5.5-5.5zm0-46.4c2.9 0 5.2 2.3 5.2 5.2s-2.3 5.2-5.2 5.2-5.2-2.3-5.2-5.2S54.4 3 57.3 3zM7 11.8c-2 0-3.5-1.6-3.5-3.5S5.1 4.7 7 4.7s3.5 1.6 3.5 3.5S9 11.8 7 11.8zm6.9 41.4c0 2.9-2.3 5.2-5.2 5.2s-5.2-2.3-5.2-5.2S5.8 48 8.7 48s5.2 2.3 5.2 5.2zm10.4-12.8c-4.3 0-7.7-3.5-7.7-7.7s3.5-7.7 7.7-7.7 7.7 3.5 7.7 7.7-3.4 7.7-7.7 7.7zm20.1 3.3c-2 0-3.5-1.6-3.5-3.5 0-2 1.6-3.5 3.5-3.5s3.5 1.6 3.5 3.5c.1 1.9-1.5 3.5-3.5 3.5zM39.9 63c-2 0-3.5-1.6-3.5-3.5S38 56 39.9 56s3.5 1.6 3.5 3.5-1.6 3.5-3.5 3.5zm17.4-4.5c-2 0-3.5-1.6-3.5-3.5s1.6-3.5 3.5-3.5 3.5 1.6 3.5 3.5-1.5 3.5-3.5 3.5z" fill="#2979ff" opacity="1" data-original="#000000" class=""></path></g></svg></svg></g></svg>