<svg width="124" height="45" viewBox="0 0 124 45" fill="none" xmlns="http://www.w3.org/2000/svg">
<path d="M34.1043 9.31291C34.0893 9.2184 34.0438 9.13161 33.9748 9.0662C33.9059 9.00078 33.8175 8.96045 33.7234 8.95154C33.5714 8.92687 30.2316 8.69254 30.2316 8.69254L27.6851 6.11117C27.4564 5.85217 26.9478 5.92864 26.7556 5.98291C26.7313 5.98291 26.247 6.13707 25.4574 6.39731C24.6885 4.14524 23.3282 2.07817 20.9338 2.07817H20.7294C20.042 1.17784 19.2025 0.762207 18.4908 0.762207C12.9136 0.786874 10.2539 7.83907 9.41445 11.4429L5.51625 12.6552C4.32026 13.0413 4.27525 13.0696 4.11708 14.2253L0.830864 39.9193L25.4659 44.5936L38.8176 41.6756C38.8176 41.6509 34.1298 9.55957 34.1055 9.31537L34.1043 9.31291ZM24.0911 6.83144C23.4706 7.03864 22.7528 7.24584 22.0033 7.47894V7.01397C22.0276 5.85217 21.8536 4.69531 21.4947 3.59024C22.743 3.78511 23.5825 5.20591 24.0911 6.83144ZM19.9909 3.88871C20.3985 5.10601 20.5993 6.38867 20.5482 7.67504V7.90691L16.2412 9.26357C17.0843 6.07294 18.638 4.49551 19.9885 3.90227L19.9909 3.88871ZM18.3363 2.31867C18.5918 2.32484 18.8387 2.40501 19.0492 2.55054C17.2522 3.39907 15.353 5.54014 14.5378 9.82721L11.1312 10.8854C12.0923 7.63187 14.3346 2.31127 18.3338 2.31127L18.3363 2.31867Z" fill="#95BF47"/>
<path d="M33.7247 8.95035C33.5726 8.92568 30.2328 8.69134 30.2328 8.69134L27.6864 6.10998C27.5927 6.01131 27.4649 5.95704 27.3299 5.95581L25.4708 44.5887L38.8225 41.6707L34.1067 9.33514C34.0751 9.13781 33.9218 8.97994 33.7259 8.94911L33.7247 8.95035Z" fill="#5E8E3E"/>
<path d="M20.9326 16.4391L19.2755 21.3971C18.2742 20.9038 17.178 20.6411 16.066 20.6201C13.466 20.6201 13.3406 22.2728 13.3406 22.6872C13.3406 24.9442 19.1746 25.8124 19.1746 31.133C19.1746 35.3165 16.5502 38.0027 13.034 38.0027C8.8049 38.0027 6.63924 35.3424 6.63924 35.3424L7.76344 31.5437C7.76344 31.5437 9.97777 33.4801 11.866 33.4801C12.0917 33.4891 12.3169 33.4515 12.5278 33.3697C12.7388 33.2878 12.9311 33.1633 13.0931 33.0038C13.2551 32.8443 13.3835 32.653 13.4704 32.4417C13.5573 32.2304 13.6009 32.0033 13.5986 31.7744C13.5986 28.802 8.80855 28.6738 8.80855 23.8194C8.80855 19.737 11.7115 15.7595 17.5467 15.7595C19.8401 15.7941 20.9363 16.4379 20.9363 16.4379L20.9326 16.4391Z" fill="white"/>
<path d="M50.41 23.8241C49.4574 23.3061 48.9646 22.8584 48.9646 22.2455C48.9646 21.4685 49.6338 20.9665 50.7203 20.9665C51.5268 20.9842 52.3222 21.1606 53.0624 21.4857L53.9408 18.7798C53.9408 18.7798 53.1354 18.1483 50.775 18.1483C47.4827 18.1483 45.1954 20.06 45.1954 22.7462C45.1954 24.2657 46.2563 25.4349 47.6823 26.2686C48.8344 26.9469 49.2396 27.3959 49.2396 28.1038C49.2396 28.8117 48.6726 29.4025 47.5935 29.4025C46.0033 29.4025 44.5031 28.5688 44.5031 28.5688L43.5712 31.2747C43.5712 31.2747 44.9618 32.2194 47.2844 32.2194C50.6667 32.2194 53.1001 30.5322 53.1001 27.4834C53.1183 25.8332 51.8919 24.6838 50.4234 23.8118L50.41 23.8241ZM63.9077 18.1323C62.2433 18.1323 60.9269 18.9303 59.9195 20.1624L59.8635 20.1439L61.3089 12.4775H57.5434L53.8848 32.0011H57.6528L58.9145 25.3263C59.4085 22.8054 60.6945 21.2465 61.8954 21.2465C62.7349 21.2465 63.0658 21.8212 63.0658 22.6562C63.0658 23.2235 63.0098 23.7871 62.9016 24.3434L61.4756 31.9826H65.2436L66.7255 24.0893C66.8873 23.2716 66.981 22.4416 66.9993 21.6103C66.981 19.4594 65.8653 18.1619 63.9089 18.1619L63.9077 18.1323ZM75.5026 18.1323C70.9668 18.1323 67.9665 22.2862 67.9665 26.889C67.9665 29.8564 69.7769 32.2293 73.1617 32.2293C77.6111 32.2293 80.6247 28.1864 80.6247 23.4726C80.6247 20.7285 79.0345 18.1323 75.5086 18.1323H75.5026ZM73.6532 29.3125C72.3721 29.3125 71.8246 28.2024 71.8246 26.8335C71.8246 24.6455 72.9366 21.0676 74.9904 21.0676C76.325 21.0676 76.7703 22.2356 76.7703 23.3678C76.7655 25.7173 75.651 29.3125 73.6557 29.3125H73.6532ZM90.2607 18.1323C87.7057 18.1323 86.2725 20.3868 86.2725 20.3868H86.2165L86.4392 18.3568H83.1019L82.3354 23.4196L79.7195 37.4007H83.4705L84.5144 31.7446H84.5874C84.5874 31.7446 85.3539 32.2453 86.8018 32.2453C91.228 32.2453 94.1176 27.6475 94.1176 23.0003C94.1358 20.4411 93.0055 18.1434 90.2583 18.1434L90.2607 18.1323ZM86.657 29.368C86.0884 29.3794 85.535 29.1813 85.0996 28.8105L85.7226 25.2314C86.1679 22.8572 87.387 21.2625 88.7034 21.2625C89.8556 21.2625 90.2023 22.338 90.2023 23.3592C90.2084 25.8468 88.7667 29.3692 86.6618 29.3692L86.657 29.368ZM99.5171 12.644C98.9404 12.6403 98.3856 12.8721 97.9805 13.2878C97.5753 13.7034 97.3502 14.267 97.3721 14.8516C97.3721 15.9789 98.0863 16.7633 99.1521 16.7633H99.2081C99.4988 16.775 99.7888 16.7262 100.06 16.6198C100.332 16.5135 100.579 16.3519 100.786 16.145C100.993 15.9382 101.157 15.6904 101.266 15.417C101.375 15.1437 101.428 14.8505 101.421 14.5556C101.421 13.4456 100.689 12.644 99.5354 12.644H99.5171ZM94.2538 31.9641H98.0219L100.582 18.4345H96.8003M110.184 18.416H107.552L107.681 17.7845C107.904 16.4858 108.669 15.3178 109.905 15.3178C110.315 15.318 110.722 15.3803 111.113 15.5028L111.841 12.5145C111.841 12.5145 111.172 12.1815 109.792 12.1815C108.449 12.1476 107.139 12.6012 106.097 13.4604C104.816 14.5704 104.211 16.1664 103.907 17.7808L103.785 18.4123H102.03L101.48 21.2859H103.235L101.233 31.9666H105.014L107.017 21.2859H109.615L110.126 18.4123L110.184 18.416ZM119.258 18.4345L115.836 27.7424H115.78L114.848 18.4345H110.877L113.146 30.8566C113.201 31.0689 113.175 31.2943 113.073 31.4881C112.58 32.4094 111.878 33.1975 111.024 33.7882C110.37 34.2446 109.656 34.6072 108.902 34.8637L109.946 38.1074C111.327 37.7328 112.594 37.0171 113.634 36.0243C115.353 34.3913 116.943 31.8704 118.574 28.4393L123.183 18.4271H119.256L119.258 18.4345Z" fill="black"/>
</svg>
