<svg xmlns="http://www.w3.org/2000/svg" width="77" height="48" viewBox="0 0 77 48" fill="none"><g clip-path="url(#clip0_112_12340)"><path d="M7.55309 0.64502H69.4159C73.3308 0.64502 76.5002 3.92427 76.5002 7.97548V32.41C76.5002 36.4609 73.3311 39.7404 69.4159 39.7404H47.2313L50.2764 47.4564L36.8846 39.7404H7.58455C3.66966 39.7404 0.500227 36.4612 0.500227 32.41V7.97548C0.469156 3.95652 3.63849 0.64502 7.55338 0.64502H7.55309Z" fill="#7F54B3"></path><path d="M4.82742 7.3264C5.25994 6.71902 5.90873 6.39933 6.77376 6.3354C8.34937 6.20753 9.24531 6.97476 9.46158 8.63708C10.4193 15.3185 11.4697 20.9766 12.582 25.6121L19.3478 12.2816C19.9657 11.0668 20.7381 10.4274 21.6649 10.3635C23.0243 10.2676 23.8584 11.1627 24.1982 13.0488C24.9706 17.3006 25.9592 20.9129 27.1332 23.9817C27.9364 15.8618 29.2958 10.0119 31.2114 6.39939C31.6748 5.5043 32.3544 5.05676 33.2504 4.9928C33.961 4.92887 34.6097 5.15264 35.1967 5.63215C35.7837 6.11168 36.0927 6.71905 36.1544 7.45431C36.1853 8.02974 36.0927 8.50923 35.8455 8.98875C34.6406 11.2904 33.652 15.1587 32.8488 20.5289C32.0765 25.7398 31.7984 29.7996 31.9838 32.7087C32.0456 33.5079 31.922 34.2112 31.6131 34.8186C31.2423 35.5218 30.6862 35.9055 29.9757 35.9694C29.1724 36.0333 28.3383 35.6497 27.535 34.7866C24.6619 31.7497 22.3756 27.2104 20.7075 21.1683C18.6994 25.26 17.2166 28.3292 16.2588 30.375C14.4361 33.9873 12.8914 35.8415 11.5937 35.9373C10.7596 36.0013 10.049 35.266 9.43112 33.7315C7.85552 29.5436 6.15629 21.4559 4.33348 9.46818C4.2099 8.63702 4.39527 7.90176 4.82778 7.32634L4.82742 7.3264ZM71.2206 12.3453C70.1084 10.3313 68.4709 9.11639 66.2776 8.63687C65.6906 8.509 65.1345 8.44506 64.6093 8.44506C61.6435 8.44506 59.2338 10.0435 57.3492 13.2403C55.7427 15.9575 54.9394 18.9626 54.9394 22.2551C54.9394 24.7166 55.4337 26.8264 56.4224 28.5847C57.5346 30.5987 59.172 31.8136 61.3653 32.2931C61.9523 32.421 62.5084 32.4849 63.0336 32.4849C66.0303 32.4849 68.44 30.8865 70.2937 27.6897C71.9002 24.9405 72.7035 21.9354 72.7035 18.643C72.7344 16.1495 72.2092 14.0717 71.2206 12.3453ZM67.3279 21.2003C66.8954 23.3102 66.1231 24.8764 64.98 25.9316C64.084 26.7628 63.2499 27.1144 62.4775 26.9546C61.736 26.7948 61.1182 26.1234 60.6548 24.8767C60.284 23.8857 60.0987 22.8947 60.0987 21.9677C60.0987 21.1685 60.1604 20.3693 60.3149 19.634C60.593 18.3234 61.1182 17.0446 61.9523 15.8298C62.9718 14.2634 64.0531 13.624 65.1654 13.8478C65.9069 14.0077 66.5247 14.679 66.9881 15.9257C67.3589 16.9167 67.5442 17.9077 67.5442 18.8348C67.5442 19.6659 67.4825 20.4651 67.328 21.2004L67.3279 21.2003ZM51.8806 12.3453C50.7684 10.3313 49.1001 9.11639 46.9377 8.63687C46.3507 8.509 45.7946 8.44506 45.2694 8.44506C42.3035 8.44506 39.8939 10.0435 38.0093 13.2403C36.4028 15.9575 35.5995 18.9626 35.5995 22.2551C35.5995 24.7166 36.0938 26.8264 37.0824 28.5847C38.1946 30.5987 39.832 31.8136 42.0254 32.2931C42.6124 32.421 43.1685 32.4849 43.6937 32.4849C46.6904 32.4849 49.1001 30.8865 50.9538 27.6897C52.5603 24.9405 53.3635 21.9354 53.3635 18.643C53.3635 16.1495 52.8693 14.0717 51.8806 12.3453ZM47.9571 21.2003C47.5246 23.3102 46.7523 24.8764 45.6092 25.9316C44.7132 26.7628 43.8791 27.1144 43.1067 26.9546C42.3652 26.7948 41.7474 26.1234 41.284 24.8767C40.9132 23.8857 40.7279 22.8947 40.7279 21.9677C40.7279 21.1685 40.7896 20.3693 40.9441 19.634C41.2222 18.3234 41.7474 17.0446 42.5815 15.8298C43.601 14.2634 44.6823 13.624 45.7946 13.8478C46.5361 14.0077 47.1539 14.679 47.6173 15.9257C47.9881 16.9167 48.1735 17.9077 48.1735 18.8348C48.2043 19.6659 48.1117 20.4651 47.9572 21.2004L47.9571 21.2003Z" fill="white"></path></g><defs><clipPath id="clip0_112_12340"><rect width="76" height="47" fill="white" transform="translate(0.5 0.64502)"></rect></clipPath></defs></svg>